<svg width="250" height="63" viewBox="0 0 250 63" fill="none" xmlns="http://www.w3.org/2000/svg">
<path d="M187.276 20.6363C189.506 20.6363 191.339 21.4869 192.776 23.1879C194.231 24.889 194.959 27.0531 194.959 29.6803C194.959 33.0068 194.099 35.6907 192.38 37.732C190.659 39.7732 188.4 40.7939 185.604 40.7939C183.429 40.7939 181.606 39.9245 180.132 38.1856C178.658 36.4278 177.921 34.2636 177.921 31.6932C177.921 28.48 178.799 25.8341 180.557 23.7549C182.315 21.6758 184.555 20.6363 187.276 20.6363ZM191.104 31.2679C191.104 26.4861 189.535 24.0952 186.398 24.0952C184.96 24.0952 183.826 24.6338 182.995 25.7112C182.182 26.7696 181.776 28.3666 181.776 30.5025C181.776 32.6193 182.21 34.3677 183.08 35.7474C183.968 37.1082 185.13 37.7887 186.568 37.7887C188.022 37.7887 189.138 37.2121 189.913 36.0592C190.707 34.8874 191.104 33.2904 191.104 31.2679ZM206.898 40.7939C205.197 40.7939 203.761 40.274 202.589 39.2346C201.436 38.1951 200.859 36.9098 200.859 35.3788L200.576 21.4869L204.658 20.7781L204.205 33.1958C204.205 34.5188 204.508 35.5489 205.112 36.2861C205.736 37.0232 206.691 37.3917 207.975 37.3917C209.261 37.3917 210.187 37.0327 210.754 36.3144C211.321 35.5961 211.604 34.3582 211.604 32.6004L211.264 21.4869L215.233 20.7781L214.921 33.2525C214.921 35.4827 214.176 37.2972 212.682 38.6959C211.189 40.0946 209.261 40.7939 206.898 40.7939ZM222.531 34.8402C224.137 36.4467 225.743 37.25 227.35 37.25C228.181 37.25 228.843 37.061 229.335 36.683C229.845 36.2861 230.1 35.7852 230.1 35.1804C230.1 34.5566 229.797 34.0368 229.193 33.6211C228.588 33.1863 227.851 32.8084 226.982 32.487C226.131 32.1657 225.281 31.8066 224.43 31.4097C223.58 30.9939 222.851 30.4079 222.247 29.6519C221.642 28.896 221.34 27.9792 221.34 26.9019C221.34 25.2008 222.049 23.7361 223.466 22.5075C224.884 21.2601 226.565 20.6363 228.513 20.6363C229.4 20.6363 230.261 20.7309 231.093 20.9198C231.923 21.1088 232.727 21.383 233.503 21.742L231.575 25.8813C231.045 25.4655 230.317 25.0874 229.392 24.7472C228.484 24.3882 227.681 24.2086 226.982 24.2086C226.301 24.2086 225.743 24.3787 225.309 24.7189C224.892 25.0402 224.685 25.4748 224.685 26.023C224.685 26.5712 224.987 27.0625 225.593 27.4973C226.197 27.913 226.925 28.2816 227.776 28.603C228.645 28.9243 229.505 29.2834 230.356 29.6803C231.225 30.0583 231.962 30.6254 232.567 31.3813C233.171 32.1373 233.474 33.054 233.474 34.1314C233.474 35.908 232.765 37.4673 231.348 38.8093C229.93 40.1323 228.276 40.7939 226.387 40.7939C224.969 40.7939 223.712 40.4536 222.616 39.7732C221.652 39.1873 220.971 38.6675 220.575 38.2139L220.319 37.9021L222.531 34.8402ZM239.312 40.482L239.652 33.5927L239.312 20.9198H249.943L249.631 23.9534H243.252L243.082 28.9715H248.753L248.441 31.9767H242.969L242.941 33.1107L243.139 37.4768H250L249.688 40.482H239.312Z" fill="#FA9428"/>
<path d="M32.5897 20.6363C34.82 20.6363 36.6533 21.4868 38.0898 23.1879C39.5451 24.8889 40.2728 27.0531 40.2728 29.6803C40.2728 33.0068 39.4128 35.6907 37.6929 37.7319C35.9728 39.7732 33.7143 40.7938 30.917 40.7938C28.7434 40.7938 26.9195 39.9244 25.4453 38.1855C23.971 36.4278 23.2339 34.2636 23.2339 31.6932C23.2339 28.48 24.1128 25.834 25.8706 23.7549C27.6283 21.6758 29.868 20.6363 32.5897 20.6363ZM36.4171 31.2679C36.4171 26.4861 34.8483 24.0951 31.7109 24.0951C30.2743 24.0951 29.1403 24.6338 28.3087 25.7111C27.4959 26.7696 27.0896 28.3666 27.0896 30.5024C27.0896 32.6193 27.5243 34.3677 28.3938 35.7474C29.282 37.1082 30.4444 37.7886 31.881 37.7886C33.3362 37.7886 34.4514 37.2121 35.2264 36.0592C36.0202 34.8873 36.4171 33.2903 36.4171 31.2679ZM61.2279 20.8631L60.8593 33.1107L61.1712 39.8582L57.8258 40.567L49.3772 26.9019V33.1107L49.7741 40.482H46.2302L46.5704 33.5927L46.2302 21.0049L49.6323 20.8348L58.0526 34.6984L57.769 21.2884L61.2279 20.8631ZM68.612 40.482L68.9522 33.5927L68.612 20.9198H79.2436L78.9317 23.9534H72.5528L72.3827 28.9715H78.0529L77.741 31.9767H72.2693L72.2409 33.1107L72.4394 37.4768H79.3003L78.9884 40.482H68.612ZM91.4398 40.7938C89.3418 40.7938 87.5747 39.9149 86.1381 38.1572C84.7017 36.3994 83.9835 34.2448 83.9835 31.6932C83.9835 28.5746 84.8435 25.9474 86.5634 23.8116C88.3023 21.6758 90.4286 20.608 92.9424 20.608C93.9253 20.608 94.8325 20.7119 95.664 20.9198C96.5146 21.1088 97.1194 21.3072 97.4785 21.5152L97.9888 21.827L96.061 25.7678C95.6263 25.3898 95.012 25.0402 94.2181 24.7188C93.4243 24.3786 92.7062 24.2085 92.0635 24.2085C90.7593 24.2085 89.7103 24.7472 88.9165 25.8245C88.1417 26.9019 87.7541 28.4423 87.7541 30.4457C87.7541 32.4303 88.1605 34.0652 88.9732 35.3504C89.786 36.6167 90.8917 37.25 92.2903 37.25C93.1975 37.25 94.0197 36.9664 94.7568 36.3994C95.4939 35.8324 96.0137 35.0764 96.3161 34.1314L98.6692 35.4922C98.0455 37.1554 97.0911 38.4595 95.8058 39.4046C94.5206 40.3307 93.0653 40.7938 91.4398 40.7938ZM101.583 24.1802L101.895 20.9198H115.362L115.05 24.1802L110.117 23.7549L110.004 33.1107L110.344 40.482H106.375L106.715 33.5927L106.601 23.7833L101.583 24.1802Z" fill="#FA9428"/>
<path d="M120.901 54.0194C85.4621 46.2634 60.9387 63.8715 36.4154 61.6034L31.5249 59.8315C50.2365 60.7529 90.6363 45.0889 116.861 50.1662C118.503 50.4842 120.312 50.6856 121.752 51.1134C146.559 58.4845 155.773 49.4833 155.773 41.545H158.041C157.332 48.7745 155.417 61.5735 120.901 54.0194Z" fill="black"/>
<path d="M43.5031 2.2082L42.7235 5.61031C1.04775 2.4917 0.153131 36.5924 9.62376 47.1444C11.8289 49.6015 24.3662 64.722 61.7895 55.3662L64.0576 58.2013C44.8994 63.7494 8.4058 67.7072 0.860202 38.3435C-0.604974 32.6419 -0.239671 26.4731 2.27392 21.15C10.5287 3.66855 31.0914 1.5255 43.5031 2.2082Z" fill="black"/>
<path d="M52.9311 10.24L54.7331 3.14845C54.7762 2.97887 54.6735 2.80506 54.5031 2.76177L47.1033 0.881415C46.9329 0.838127 46.7597 0.941814 46.7166 1.11139L46.697 1.18848C46.6539 1.35806 46.4807 1.46174 46.3103 1.41846L45.3853 1.18341C45.215 1.14013 45.0417 1.24381 44.9987 1.41339L44.8615 1.95297C44.8185 2.12255 44.6452 2.22623 44.4749 2.18295L43.4728 1.92832C43.3025 1.88503 43.1292 1.98872 43.0861 2.1583L42.2243 5.54991C42.1812 5.71949 42.2839 5.8933 42.4543 5.93658L43.4563 6.19121C43.6267 6.2345 43.7294 6.40831 43.6863 6.57789L43.5884 6.9633C43.5453 7.13288 43.648 7.30669 43.8184 7.34998L44.7434 7.58502C44.9137 7.62831 45.0164 7.80212 44.9733 7.9717L44.9146 8.20294C44.8715 8.37252 44.9742 8.54633 45.1446 8.58962L52.5444 10.47C52.7148 10.5133 52.888 10.4096 52.9311 10.24Z" fill="black"/>
<path d="M51.3971 7.88078L52.2393 4.56625C52.2824 4.39667 52.1797 4.22286 52.0093 4.17957L50.8531 3.88577C50.6827 3.84248 50.5095 3.94617 50.4664 4.11575L50.3685 4.50116C50.3254 4.67074 50.1522 4.77442 49.9818 4.73114L48.286 4.30022C48.1157 4.25693 47.9424 4.36062 47.8993 4.5302L47.6055 5.68643C47.5624 5.85601 47.6652 6.02982 47.8355 6.07311L49.5313 6.50402C49.7017 6.54731 49.8044 6.72112 49.7613 6.8907L49.6242 7.43027C49.5811 7.59985 49.6838 7.77366 49.8542 7.81695L51.0104 8.11076C51.1807 8.15404 51.354 8.05036 51.3971 7.88078Z" fill="white"/>
<path d="M46.0784 6.52927L46.9206 3.21475C46.9637 3.04517 46.861 2.87136 46.6907 2.82807L46.2282 2.71055C46.0578 2.66726 45.8846 2.77095 45.8415 2.94053L44.9993 6.25506C44.9562 6.42464 45.0589 6.59845 45.2292 6.64173L45.6917 6.75925C45.8621 6.80254 46.0353 6.69886 46.0784 6.52927Z" fill="white"/>
<path d="M44.5993 4.92254L44.8931 3.76631C44.9362 3.59672 44.8335 3.42292 44.6632 3.37963L44.2007 3.26211C44.0303 3.21882 43.8571 3.32251 43.814 3.49209L43.5202 4.64832C43.4771 4.8179 43.5798 4.99171 43.7502 5.03499L44.2127 5.15252C44.383 5.1958 44.5563 5.09212 44.5993 4.92254Z" fill="white"/>
<path d="M160.167 31.2679H153.647C153.491 31.2679 153.363 31.3948 153.363 31.5514V38.3557C153.363 38.5123 153.491 38.6392 153.647 38.6392H153.717C153.873 38.6392 154.001 38.766 154.001 38.9227V39.7732C154.001 39.9298 154.128 40.0567 154.284 40.0567H154.781C154.936 40.0567 155.064 40.1836 155.064 40.3402V41.2616C155.064 41.4183 155.192 41.5451 155.348 41.5451H158.466C158.622 41.5451 158.75 41.4183 158.75 41.2616V40.3402C158.75 40.1836 158.877 40.0567 159.033 40.0567H159.388C159.544 40.0567 159.671 39.9298 159.671 39.7732V38.9227C159.671 38.766 159.799 38.6392 159.955 38.6392H160.167C160.323 38.6392 160.451 38.5123 160.451 38.3557V31.5514C160.451 31.3948 160.323 31.2679 160.167 31.2679Z" fill="black"/>
<path d="M158.466 33.1107H155.418C155.263 33.1107 155.135 33.2376 155.135 33.3943V34.4574C155.135 34.6141 155.263 34.7409 155.418 34.7409H155.773C155.929 34.7409 156.056 34.8678 156.056 35.0244V36.5837C156.056 36.7404 156.184 36.8672 156.34 36.8672H157.403C157.559 36.8672 157.687 36.7404 157.687 36.5837V35.0244C157.687 34.8678 157.814 34.7409 157.97 34.7409H158.466C158.622 34.7409 158.75 34.6141 158.75 34.4574V33.3943C158.75 33.2376 158.622 33.1107 158.466 33.1107Z" fill="white"/>
<path d="M158.466 38.0013H155.418C155.263 38.0013 155.135 38.1282 155.135 38.2848V38.7101C155.135 38.8667 155.263 38.9936 155.418 38.9936H158.466C158.622 38.9936 158.75 38.8667 158.75 38.7101V38.2848C158.75 38.1282 158.622 38.0013 158.466 38.0013Z" fill="white"/>
<path d="M157.403 39.6315H156.34C156.184 39.6315 156.056 39.7583 156.056 39.915V40.3402C156.056 40.4969 156.184 40.6237 156.34 40.6237H157.403C157.559 40.6237 157.687 40.4969 157.687 40.3402V39.915C157.687 39.7583 157.559 39.6315 157.403 39.6315Z" fill="white"/>
<path d="M156.907 19.9276L146.559 28.0784V38.4974H151.945V29.8504H162.294V38.4974H166.971L167.255 28.0784L156.907 19.9276Z" fill="#FA9428"/>
<path d="M144.716 27.8658L142.164 25.3851L156.907 13.4777L163.002 18.401V16.1711H167.255V21.8359L171.649 25.3851L168.885 27.8658L156.907 18.2265L144.716 27.8658Z" fill="#FA9428"/>
</svg>
