<svg width="200" height="50" viewBox="0 0 200 50" fill="none" xmlns="http://www.w3.org/2000/svg">
<path d="M149.821 16.5091C151.605 16.5091 153.071 17.1895 154.221 18.5503C155.385 19.9112 155.968 21.6425 155.968 23.7442C155.968 26.4055 155.279 28.5525 153.904 30.1856C152.527 31.8186 150.72 32.6351 148.483 32.6351C146.743 32.6351 145.285 31.9396 144.106 30.5484C142.926 29.1422 142.336 27.4109 142.336 25.3546C142.336 22.784 143.04 20.6672 144.446 19.0039C145.852 17.3407 147.644 16.5091 149.821 16.5091ZM152.883 25.0143C152.883 21.1889 151.628 19.2761 149.118 19.2761C147.968 19.2761 147.061 19.707 146.396 20.5689C145.745 21.4157 145.421 22.6933 145.421 24.402C145.421 26.0954 145.768 27.4941 146.464 28.5979C147.174 29.6866 148.104 30.2309 149.254 30.2309C150.418 30.2309 151.31 29.7697 151.93 28.8474C152.565 27.9099 152.883 26.6323 152.883 25.0143ZM165.518 32.6351C164.158 32.6351 163.009 32.2192 162.071 31.3876C161.149 30.556 160.687 29.5278 160.687 28.3031L160.461 17.1895L163.727 16.6225L163.364 26.5566C163.364 27.615 163.606 28.4391 164.09 29.0288C164.589 29.6185 165.353 29.9134 166.38 29.9134C167.409 29.9134 168.149 29.6261 168.603 29.0515C169.057 28.4769 169.283 27.4865 169.283 26.0803L169.011 17.1895L172.187 16.6225L171.937 26.602C171.937 28.3862 171.341 29.8377 170.145 30.9567C168.951 32.0757 167.409 32.6351 165.518 32.6351ZM178.025 27.8721C179.309 29.1573 180.594 29.8 181.88 29.8C182.545 29.8 183.074 29.6488 183.468 29.3464C183.876 29.0288 184.08 28.6282 184.08 28.1443C184.08 27.6453 183.838 27.2295 183.355 26.8968C182.87 26.549 182.281 26.2467 181.586 25.9896C180.905 25.7325 180.225 25.4453 179.544 25.1277C178.864 24.7951 178.281 24.3263 177.798 23.7215C177.314 23.1168 177.072 22.3834 177.072 21.5215C177.072 20.1607 177.639 18.9889 178.773 18.006C179.907 17.008 181.252 16.5091 182.81 16.5091C183.52 16.5091 184.209 16.5847 184.874 16.7359C185.539 16.887 186.182 17.1064 186.802 17.3936L185.26 20.705C184.836 20.3724 184.254 20.0699 183.513 19.7978C182.788 19.5105 182.145 19.3668 181.586 19.3668C181.041 19.3668 180.594 19.5029 180.247 19.7751C179.914 20.0322 179.748 20.3799 179.748 20.8184C179.748 21.2569 179.99 21.65 180.474 21.9978C180.957 22.3304 181.54 22.6253 182.221 22.8824C182.916 23.1394 183.604 23.4267 184.285 23.7442C184.98 24.0467 185.569 24.5003 186.054 25.1051C186.537 25.7098 186.779 26.4432 186.779 27.3051C186.779 28.7264 186.212 29.9738 185.078 31.0474C183.944 32.1058 182.621 32.6351 181.109 32.6351C179.975 32.6351 178.969 32.3629 178.093 31.8186C177.322 31.3499 176.777 30.934 176.46 30.5711L176.256 30.3216L178.025 27.8721ZM191.449 32.3856L191.722 26.8742L191.449 16.7359H199.955L199.705 19.1627H194.602L194.466 23.1772H199.002L198.753 25.5814H194.375L194.353 26.4886L194.511 29.9814H200L199.751 32.3856H191.449Z" fill="#FA9428"/>
<path d="M26.0718 16.509C27.856 16.509 29.3226 17.1895 30.4718 18.5503C31.636 19.9112 32.2183 21.6425 32.2183 23.7442C32.2183 26.4054 31.5302 28.5525 30.1543 30.1855C28.7783 31.8185 26.9714 32.6351 24.7336 32.6351C22.9947 32.6351 21.5356 31.9395 20.3562 30.5484C19.1768 29.1422 18.5871 27.4109 18.5871 25.3545C18.5871 22.784 19.2902 20.6672 20.6964 19.0039C22.1026 17.3406 23.8944 16.509 26.0718 16.509ZM29.1337 25.0143C29.1337 21.1889 27.8786 19.2761 25.3687 19.2761C24.2194 19.2761 23.3122 19.707 22.647 20.5689C21.9967 21.4157 21.6717 22.6933 21.6717 24.4019C21.6717 26.0954 22.0194 27.4941 22.715 28.5979C23.4256 29.6866 24.3555 30.2309 25.5048 30.2309C26.669 30.2309 27.5611 29.7697 28.1811 28.8474C28.8161 27.9099 29.1337 26.6323 29.1337 25.0143ZM48.9823 16.6905L48.6874 26.4886L48.9369 31.8866L46.2606 32.4536L39.5017 21.5215V26.4886L39.8193 32.3856H36.9842L37.2563 26.8741L36.9842 16.8039L39.7059 16.6678L46.442 27.7587L46.2152 17.0307L48.9823 16.6905ZM54.8896 32.3856L55.1618 26.8741L54.8896 16.7358H63.3949L63.1454 19.1627H58.0422L57.9061 23.1772H62.4423L62.1928 25.5813H57.8154L57.7927 26.4886L57.9515 29.9814H63.4402L63.1907 32.3856H54.8896ZM73.1518 32.6351C71.4734 32.6351 70.0597 31.9319 68.9105 30.5257C67.7614 29.1195 67.1868 27.3958 67.1868 25.3545C67.1868 22.8597 67.8748 20.7579 69.2507 19.0493C70.6418 17.3406 72.3429 16.4864 74.3539 16.4864C75.1402 16.4864 75.866 16.5695 76.5312 16.7358C77.2116 16.887 77.6955 17.0458 77.9828 17.2121L78.391 17.4616L76.8488 20.6143C76.5011 20.3118 76.0096 20.0322 75.3745 19.7751C74.7394 19.5029 74.1649 19.3668 73.6508 19.3668C72.6075 19.3668 71.7683 19.7977 71.1332 20.6596C70.5133 21.5215 70.2033 22.7538 70.2033 24.3566C70.2033 25.9442 70.5284 27.2521 71.1786 28.2803C71.8288 29.2934 72.7134 29.8 73.8322 29.8C74.558 29.8 75.2157 29.5732 75.8054 29.1195C76.3951 28.6659 76.811 28.0611 77.0529 27.3051L78.9354 28.3938C78.4364 29.7243 77.6729 30.7676 76.6446 31.5237C75.6165 32.2646 74.4522 32.6351 73.1518 32.6351ZM81.2666 19.3441L81.5161 16.7358H92.2895L92.04 19.3441L88.0935 19.0039L88.0028 26.4886L88.275 32.3856H85.0997L85.3718 26.8741L85.2811 19.0266L81.2666 19.3441Z" fill="#FA9428"/>
<path d="M96.7209 43.2155C68.3697 37.0108 48.7509 51.0972 29.1323 49.2827L25.2199 47.8652C40.1892 48.6023 72.509 36.0711 93.4888 40.133C94.8024 40.3873 96.2492 40.5485 97.4014 40.8907C117.247 46.7876 124.618 39.5866 124.618 33.236H126.433C125.866 39.0196 124.334 49.2588 96.7209 43.2155Z" fill="#FBFBFB"/>
<path d="M34.8025 1.76655L34.1788 4.48824C0.838197 1.99336 0.122505 29.2739 7.69901 37.7155C9.46312 39.6812 19.493 51.7776 49.4316 44.293L51.246 46.561C35.9195 50.9995 6.72464 54.1658 0.688162 30.6748C-0.483979 26.1135 -0.191737 21.1784 1.81914 16.92C8.42298 2.93484 24.8731 1.2204 34.8025 1.76655Z" fill="#FBFBFB"/>
<path d="M42.3449 8.192L43.7865 2.51876C43.821 2.38309 43.7388 2.24405 43.6025 2.20942L37.6826 0.705132C37.5463 0.670502 37.4077 0.753452 37.3733 0.889116L37.3576 0.950782C37.3231 1.08645 37.1845 1.1694 37.0483 1.13477L36.3083 0.94673C36.172 0.9121 36.0334 0.99505 35.9989 1.13071L35.8892 1.56237C35.8548 1.69804 35.7162 1.78099 35.5799 1.74636L34.7783 1.54265C34.642 1.50802 34.5034 1.59097 34.4689 1.72664L33.7795 4.43992C33.745 4.57559 33.8272 4.71464 33.9634 4.74927L34.7651 4.95297C34.9014 4.9876 34.9835 5.12665 34.9491 5.26231L34.8707 5.57064C34.8363 5.7063 34.9184 5.84535 35.0547 5.87998L35.7947 6.06802C35.931 6.10265 36.0132 6.24169 35.9787 6.37736L35.9317 6.56236C35.8972 6.69802 35.9794 6.83707 36.1157 6.8717L42.0356 8.37598C42.1718 8.41061 42.3104 8.32766 42.3449 8.192Z" fill="#FBFBFB"/>
<path d="M41.1177 6.30463L41.7914 3.653C41.8259 3.51734 41.7437 3.37829 41.6075 3.34366L40.6825 3.10862C40.5462 3.07399 40.4076 3.15694 40.3731 3.2926L40.2948 3.60093C40.2603 3.7366 40.1217 3.81954 39.9854 3.78491L38.6288 3.44018C38.4925 3.40555 38.3539 3.4885 38.3195 3.62417L38.0844 4.54915C38.0499 4.68482 38.1321 4.82386 38.2684 4.85849L39.625 5.20322C39.7613 5.23785 39.8435 5.3769 39.809 5.51257L39.6993 5.94423C39.6649 6.07989 39.747 6.21894 39.8833 6.25357L40.8083 6.48861C40.9446 6.52324 41.0832 6.44029 41.1177 6.30463Z" fill="#141821"/>
<path d="M36.8627 5.22342L37.5365 2.5718C37.571 2.43613 37.4888 2.29709 37.3526 2.26246L36.9826 2.16844C36.8463 2.13381 36.7077 2.21676 36.6732 2.35242L35.9994 5.00404C35.9649 5.13971 36.0471 5.27876 36.1834 5.31339L36.5534 5.4074C36.6897 5.44203 36.8283 5.35908 36.8627 5.22342Z" fill="#141821"/>
<path d="M35.6795 3.93802L35.9145 3.01304C35.949 2.87737 35.8668 2.73832 35.7305 2.70369L35.3605 2.60968C35.2243 2.57505 35.0857 2.658 35.0512 2.79366L34.8162 3.71865C34.7817 3.85431 34.8639 3.99336 35.0001 4.02799L35.3701 4.122C35.5064 4.15663 35.645 4.07368 35.6795 3.93802Z" fill="#141821"/>
<path d="M128.134 25.0143H122.917C122.792 25.0143 122.69 25.1158 122.69 25.2412V30.6845C122.69 30.8098 122.792 30.9113 122.917 30.9113H122.974C123.099 30.9113 123.201 31.0128 123.201 31.1381V31.8186C123.201 31.9439 123.303 32.0454 123.428 32.0454H123.824C123.949 32.0454 124.051 32.1469 124.051 32.2722V33.0093C124.051 33.1346 124.153 33.2361 124.278 33.2361H126.773C126.898 33.2361 127 33.1346 127 33.0093V32.2722C127 32.1469 127.102 32.0454 127.227 32.0454H127.51C127.635 32.0454 127.737 31.9439 127.737 31.8186V31.1381C127.737 31.0128 127.839 30.9113 127.964 30.9113H128.134C128.259 30.9113 128.361 30.8098 128.361 30.6845V25.2412C128.361 25.1158 128.259 25.0143 128.134 25.0143Z" fill="#FBFBFB"/>
<path d="M126.773 26.4886H124.335C124.21 26.4886 124.108 26.5901 124.108 26.7154V27.5659C124.108 27.6912 124.21 27.7927 124.335 27.7927H124.618C124.743 27.7927 124.845 27.8942 124.845 28.0196V29.267C124.845 29.3923 124.947 29.4938 125.072 29.4938H125.922C126.047 29.4938 126.149 29.3923 126.149 29.267V28.0196C126.149 27.8942 126.251 27.7927 126.376 27.7927H126.773C126.898 27.7927 127 27.6912 127 27.5659V26.7154C127 26.5901 126.898 26.4886 126.773 26.4886Z" fill="#141821"/>
<path d="M126.773 30.401H124.335C124.21 30.401 124.108 30.5025 124.108 30.6278V30.9681C124.108 31.0934 124.21 31.1949 124.335 31.1949H126.773C126.898 31.1949 127 31.0934 127 30.9681V30.6278C127 30.5025 126.898 30.401 126.773 30.401Z" fill="#141821"/>
<path d="M125.922 31.7052H125.072C124.947 31.7052 124.845 31.8067 124.845 31.932V32.2722C124.845 32.3975 124.947 32.499 125.072 32.499H125.922C126.047 32.499 126.149 32.3975 126.149 32.2722V31.932C126.149 31.8067 126.047 31.7052 125.922 31.7052Z" fill="#141821"/>
<path d="M125.525 15.942L117.247 22.4628V30.7979H121.556V23.8803H129.835V30.7979H133.577L133.804 22.4628L125.525 15.942Z" fill="#FA9428"/>
<path d="M115.773 22.2927L113.732 20.3081L125.525 10.7822L130.402 14.7208V12.9369H133.804V17.4687L137.319 20.3081L135.108 22.2927L125.525 14.5812L115.773 22.2927Z" fill="#FA9428"/>
</svg>
