<svg width="45" height="44" viewBox="0 0 45 44" fill="none" xmlns="http://www.w3.org/2000/svg">
<path d="M2 27.8357L7.918 22.1927C8.69064 21.456 9.90571 21.456 10.6784 22.1927L12.2838 23.7235M12.2838 23.7235C14.1636 23.4072 16.5964 22.5215 16.5964 11.3873M12.2838 23.7235L15.7878 27.0647M19.2503 41.7535L23.7035 37.5073C24.5299 36.7193 24.5299 35.4004 23.7035 34.6124L22.2359 33.213M22.2359 33.213L19.2503 30.3662M22.2359 33.213C23.8945 31.1636 27.7426 29.1009 37.8274 29.1009M15.7878 27.0647C20.7016 23.1041 27.8754 15.4362 27.8754 6.32629M15.7878 27.0647L19.2503 30.3662M19.2503 30.3662C21.4618 27.203 27.7426 22.9011 37.8274 18.3462" stroke="#FA9428" stroke-width="4"/>
<path d="M18.0773 8.85681C18.0773 9.46163 17.5277 10.1526 16.5964 10.1526C15.6651 10.1526 15.1156 9.46163 15.1156 8.85681C15.1156 8.25198 15.6651 7.56104 16.5964 7.56104C17.5277 7.56104 18.0773 8.25198 18.0773 8.85681Z" stroke="#FA9428" stroke-width="5"/>
<path d="M30.0196 3.79577C30.0196 4.40059 29.4701 5.09154 28.5388 5.09154C27.6075 5.09154 27.058 4.40059 27.058 3.79577C27.058 3.19095 27.6075 2.5 28.5388 2.5C29.4701 2.5 30.0196 3.19095 30.0196 3.79577Z" stroke="#FA9428" stroke-width="5"/>
<path d="M40.6351 17.7137C40.6351 18.3184 40.0856 19.0094 39.1543 19.0094C38.2229 19.0094 37.6735 18.3184 37.6735 17.7137C37.6735 17.1088 38.2229 16.4178 39.1543 16.4178C40.0856 16.4178 40.6351 17.1087 40.6351 17.7137Z" stroke="#FA9428" stroke-width="5"/>
<path d="M41.9621 29.1009C41.9621 29.7057 41.4125 30.3967 40.4814 30.3967C39.55 30.3967 39.0005 29.7057 39.0005 29.1009C39.0005 28.496 39.55 27.8051 40.4814 27.8051C41.4125 27.8051 41.9621 28.496 41.9621 29.1009Z" stroke="#FA9428" stroke-width="5"/>
</svg>
