<svg width="42" height="37" viewBox="0 0 42 37" fill="none" xmlns="http://www.w3.org/2000/svg">
<path d="M12.4623 25.5332C11.0358 24.0905 11.4093 21.6797 13.2054 20.7361L17.3468 18.5605C19.1566 17.6097 21.3086 17.5682 23.1539 18.4483L28.0914 20.8033C29.9581 21.6939 30.3759 24.1668 28.9053 25.6211C28.0631 26.454 26.8083 26.7103 25.707 26.2743L22.9652 25.189C21.3645 24.5555 19.5789 24.578 17.9947 25.2518L15.7919 26.1888C14.6527 26.6734 13.3329 26.4135 12.4623 25.5332Z" fill="#FA9428"/>
<path d="M5.88999 18.9771C4.45557 17.5428 4.88707 15.1185 6.72827 14.2672L16.2625 9.85865C18.9637 8.60963 22.0744 8.59658 24.7859 9.823L34.6701 14.2939C36.5166 15.129 36.9584 17.5527 35.5254 18.9858C34.6596 19.8515 33.3434 20.0802 32.2364 19.5571L26.0817 16.6488C22.6821 15.0425 18.7419 15.0425 15.3423 16.6488L9.19859 19.5519C8.085 20.0781 6.76087 19.8481 5.88999 18.9771Z" fill="#FA9428"/>
<path d="M0.76651 12.1029C-0.535001 10.7404 -0.123121 8.50388 1.57835 7.69453L14.9988 1.31041C18.6263 -0.415198 22.8335 -0.437556 26.4791 1.24938L39.656 7.3466C41.4767 8.1891 41.9595 10.555 40.6144 12.0434C39.733 13.0188 38.3163 13.3003 37.1289 12.7363L27.7955 8.30279C23.2466 6.14214 17.9701 6.12747 13.4094 8.26301L3.93942 12.6972C2.86388 13.2008 1.58688 12.9616 0.76651 12.1029Z" fill="#FA9428"/>
<path d="M20.7609 36.7866C23.4657 36.7866 25.6583 34.594 25.6583 31.8892C25.6583 29.1844 23.4657 26.9917 20.7609 26.9917C18.0561 26.9917 15.8634 29.1844 15.8634 31.8892C15.8634 34.594 18.0561 36.7866 20.7609 36.7866Z" fill="#FA9428"/>
</svg>
