<svg width="209" height="199" viewBox="0 0 209 199" fill="none" xmlns="http://www.w3.org/2000/svg">
<path d="M127.89 125.578H81.8901C80.7901 125.578 79.8901 126.473 79.8901 127.578V175.578C79.8901 176.683 80.7901 177.578 81.8901 177.578H82.3901C83.4901 177.578 84.3901 178.473 84.3901 179.578V185.578C84.3901 186.683 85.2901 187.578 86.3901 187.578H89.8901C90.9901 187.578 91.8901 188.473 91.8901 189.578V196.078C91.8901 197.183 92.7901 198.078 93.8901 198.078H115.89C116.99 198.078 117.89 197.183 117.89 196.078V189.578C117.89 188.473 118.79 187.578 119.89 187.578H122.39C123.49 187.578 124.39 186.683 124.39 185.578V179.578C124.39 178.473 125.29 177.578 126.39 177.578H127.89C128.99 177.578 129.89 176.683 129.89 175.578V127.578C129.89 126.473 128.99 125.578 127.89 125.578Z" fill="#FBFBFB"/>
<path d="M115.89 138.578H94.3901C93.2901 138.578 92.3901 139.473 92.3901 140.578V148.078C92.3901 149.183 93.2901 150.078 94.3901 150.078H96.8901C97.9901 150.078 98.8901 150.973 98.8901 152.078V163.078C98.8901 164.183 99.7901 165.078 100.89 165.078H108.39C109.49 165.078 110.39 164.183 110.39 163.078V152.078C110.39 150.973 111.29 150.078 112.39 150.078H115.89C116.99 150.078 117.89 149.183 117.89 148.078V140.578C117.89 139.473 116.99 138.578 115.89 138.578Z" fill="#141821"/>
<path d="M115.89 173.078H94.3901C93.2901 173.078 92.3901 173.973 92.3901 175.078V178.078C92.3901 179.183 93.2901 180.078 94.3901 180.078H115.89C116.99 180.078 117.89 179.183 117.89 178.078V175.078C117.89 173.973 116.99 173.078 115.89 173.078Z" fill="#141821"/>
<path d="M108.39 184.578H100.89C99.7901 184.578 98.8901 185.473 98.8901 186.578V189.578C98.8901 190.683 99.7901 191.578 100.89 191.578H108.39C109.49 191.578 110.39 190.683 110.39 189.578V186.578C110.39 185.473 109.49 184.578 108.39 184.578Z" fill="#141821"/>
<path d="M104.89 45.5778L31.8901 103.078V176.578H69.8901V115.578H142.89V176.578H175.89L177.89 103.078L104.89 45.5778Z" fill="#FA9428"/>
<path d="M18.8901 101.578L0.890137 84.0779L104.89 0.0778809L147.89 34.8089V19.0779H177.89V59.0399L208.89 84.0779L189.39 101.578L104.89 33.5779L18.8901 101.578Z" fill="#FA9428"/>
</svg>
