<svg width="44" height="36" viewBox="0 0 44 36" fill="none" xmlns="http://www.w3.org/2000/svg">
<path d="M43.7798 18.5224V35.4724H41.8298C40.173 35.4724 38.8298 34.1293 38.8298 32.4724V29.5724H30.9798L27.1298 23.0224L11.2798 32.1224L7.57983 25.6724L11.2798 27.9224L38.8298 12.5224L40.4298 15.3224L30.9798 20.7224L33.7298 25.6724H38.8298V21.5224C38.8298 19.8656 40.173 18.5224 41.8298 18.5224H43.7798Z" fill="#FA9428"/>
<path d="M0 19.1743L32.5138 0.402429C33.9487 -0.426006 35.7835 0.0656239 36.6119 1.5005L41.0729 9.22699L11.7298 25.9224L0 19.1743Z" fill="#FA9428"/>
<path d="M4.11417 22.3724L9.58119 31.8414L9.39489 31.949C7.96 32.7774 6.12519 32.2858 5.29677 30.8509L2.82979 26.5781C2.00137 25.1432 2.493 23.3084 3.92788 22.4799L4.11417 22.3724Z" fill="#FA9428"/>
</svg>
