<svg width="45" height="40" viewBox="0 0 45 40" fill="none" xmlns="http://www.w3.org/2000/svg">
<path d="M4.30523 20.6084C2.78167 20.6084 2.0554 18.7341 3.18117 17.7075L21.246 1.23433C22.012 0.535807 23.1848 0.538391 23.9477 1.24028L30.1928 6.98578C31.2099 7.92151 32.854 7.20006 32.854 5.818V5.818C32.854 4.94163 33.5644 4.2312 34.4408 4.2312H35.0354C36.14 4.2312 37.0354 5.12663 37.0354 6.2312V12.4033C37.0354 12.9627 37.2696 13.4965 37.6813 13.8752L41.8374 17.6989C42.9613 18.7328 42.2297 20.6084 40.7026 20.6084V20.6084C39.777 20.6084 39.0265 21.3588 39.0265 22.2845V37.5243C39.0265 38.6289 38.1311 39.5243 37.0265 39.5243H28.8286C27.724 39.5243 26.8286 38.6289 26.8286 37.5243V28.2053C26.8286 27.1007 25.9332 26.2053 24.8286 26.2053H24.6643H22.5H20.1714C19.0668 26.2053 18.1714 27.1007 18.1714 28.2053V37.5243C18.1714 38.6289 17.276 39.5243 16.1714 39.5243H7.97345C6.86888 39.5243 5.97345 38.6289 5.97345 37.5243V22.2766C5.97345 21.3553 5.22656 20.6084 4.30523 20.6084V20.6084Z" fill="#FA9428"/>
</svg>
