<svg width="45" height="43" viewBox="0 0 45 43" fill="none" xmlns="http://www.w3.org/2000/svg">
<path d="M0.625 21.974H7.5M7.5 21.974H22.1875M7.5 21.974V27.6245M43.75 21.974H37.5M37.5 21.974H22.1875M37.5 21.974V27.6245M22.1875 21.974V15.0679" stroke="#FA9428" stroke-width="3"/>
<path d="M29 0H16C15.4477 0 15 0.447715 15 1V14.0679C15 14.6202 15.4477 15.0679 16 15.0679H29C29.5523 15.0679 30 14.6202 30 14.0679V1C30 0.447715 29.5523 0 29 0Z" fill="#FA9428"/>
<path d="M14 27.6244H1C0.447715 27.6244 0 28.0721 0 28.6244V41.6923C0 42.2446 0.447715 42.6923 1 42.6923H14C14.5523 42.6923 15 42.2446 15 41.6923V28.6244C15 28.0721 14.5523 27.6244 14 27.6244Z" fill="#FA9428"/>
<path d="M44 27.6244H31C30.4477 27.6244 30 28.0721 30 28.6244V41.6923C30 42.2446 30.4477 42.6923 31 42.6923H44C44.5523 42.6923 45 42.2446 45 41.6923V28.6244C45 28.0721 44.5523 27.6244 44 27.6244Z" fill="#FA9428"/>
</svg>
