<svg width="41" height="34" viewBox="0 0 41 34" fill="none" xmlns="http://www.w3.org/2000/svg">
<path fill-rule="evenodd" clip-rule="evenodd" d="M1.08 24.1208C0.483535 24.1208 0 24.6043 0 25.2008V32.6126C0 33.2091 0.483535 33.6926 1.08 33.6926H39.6C40.1964 33.6926 40.68 33.2091 40.68 32.6126V25.2008C40.68 24.6043 40.1964 24.1208 39.6 24.1208H1.08ZM36.8587 26.6408H34.1587V29.3408H36.8587V26.6408Z" fill="#FA9428"/>
<path fill-rule="evenodd" clip-rule="evenodd" d="M1.08 12.06C0.483535 12.06 0 12.5436 0 13.14V20.5518C0 21.1482 0.483535 21.6318 1.08 21.6318H39.6C40.1964 21.6318 40.68 21.1482 40.68 20.5518V13.14C40.68 12.5436 40.1964 12.06 39.6 12.06H1.08ZM36.8587 14.58H34.1587V17.28H36.8587V14.58Z" fill="#FA9428"/>
<path fill-rule="evenodd" clip-rule="evenodd" d="M1.08 0C0.483535 0 0 0.483535 0 1.08V8.49177C0 9.08822 0.483535 9.57177 1.08 9.57177H39.6C40.1964 9.57177 40.68 9.08822 40.68 8.49177V1.08C40.68 0.483535 40.1964 0 39.6 0H1.08ZM36.8587 2.52H34.1587V5.21998H36.8587V2.52Z" fill="#FA9428"/>
</svg>
