<svg width="1764" height="439" viewBox="0 0 1764 439" fill="none" xmlns="http://www.w3.org/2000/svg">
<path d="M1321.13 145.578C1336.86 145.578 1349.79 151.578 1359.93 163.578C1370.19 175.578 1375.33 190.845 1375.33 209.378C1375.33 232.845 1369.26 251.778 1357.13 266.178C1344.99 280.578 1329.06 287.778 1309.33 287.778C1293.99 287.778 1281.13 281.645 1270.73 269.378C1260.33 256.978 1255.13 241.711 1255.13 223.578C1255.13 200.911 1261.33 182.245 1273.73 167.578C1286.13 152.911 1301.93 145.578 1321.13 145.578ZM1348.13 220.578C1348.13 186.845 1337.06 169.978 1314.93 169.978C1304.79 169.978 1296.79 173.778 1290.93 181.378C1285.19 188.845 1282.33 200.111 1282.33 215.178C1282.33 230.111 1285.39 242.445 1291.53 252.178C1297.79 261.778 1305.99 266.578 1316.13 266.578C1326.39 266.578 1334.26 262.511 1339.73 254.378C1345.33 246.111 1348.13 234.845 1348.13 220.578ZM1459.55 287.778C1447.55 287.778 1437.42 284.111 1429.15 276.778C1421.02 269.445 1416.95 260.378 1416.95 249.578L1414.95 151.578L1443.75 146.578L1440.55 234.178C1440.55 243.511 1442.69 250.778 1446.95 255.978C1451.35 261.178 1458.09 263.778 1467.15 263.778C1476.22 263.778 1482.75 261.245 1486.75 256.178C1490.75 251.111 1492.75 242.378 1492.75 229.978L1490.35 151.578L1518.35 146.578L1516.15 234.578C1516.15 250.311 1510.89 263.111 1500.35 272.978C1489.82 282.845 1476.22 287.778 1459.55 287.778ZM1569.83 245.778C1581.16 257.111 1592.49 262.778 1603.83 262.778C1609.69 262.778 1614.36 261.445 1617.83 258.778C1621.43 255.978 1623.23 252.445 1623.23 248.178C1623.23 243.778 1621.09 240.111 1616.83 237.178C1612.56 234.111 1607.36 231.445 1601.23 229.178C1595.23 226.911 1589.23 224.378 1583.23 221.578C1577.23 218.645 1572.09 214.511 1567.83 209.178C1563.56 203.845 1561.43 197.378 1561.43 189.778C1561.43 177.778 1566.43 167.445 1576.43 158.778C1586.43 149.978 1598.29 145.578 1612.03 145.578C1618.29 145.578 1624.36 146.245 1630.23 147.578C1636.09 148.911 1641.76 150.845 1647.23 153.378L1633.63 182.578C1629.89 179.645 1624.76 176.978 1618.23 174.578C1611.83 172.045 1606.16 170.778 1601.23 170.778C1596.43 170.778 1592.49 171.978 1589.43 174.378C1586.49 176.645 1585.03 179.711 1585.03 183.578C1585.03 187.445 1587.16 190.911 1591.43 193.978C1595.69 196.911 1600.83 199.511 1606.83 201.778C1612.96 204.045 1619.03 206.578 1625.03 209.378C1631.16 212.045 1636.36 216.045 1640.63 221.378C1644.89 226.711 1647.03 233.178 1647.03 240.778C1647.03 253.311 1642.03 264.311 1632.03 273.778C1622.03 283.111 1610.36 287.778 1597.03 287.778C1587.03 287.778 1578.16 285.378 1570.43 280.578C1563.63 276.445 1558.83 272.778 1556.03 269.578L1554.23 267.378L1569.83 245.778ZM1688.21 285.578L1690.61 236.978L1688.21 147.578H1763.21L1761.01 168.978H1716.01L1714.81 204.378H1754.81L1752.61 225.578H1714.01L1713.81 233.578L1715.21 264.378H1763.61L1761.41 285.578H1688.21Z" fill="#FA9428"/>
<path d="M229.902 145.578C245.635 145.578 258.568 151.578 268.702 163.578C278.968 175.578 284.102 190.845 284.102 209.378C284.102 232.845 278.035 251.778 265.902 266.178C253.768 280.578 237.835 287.778 218.102 287.778C202.768 287.778 189.902 281.645 179.502 269.378C169.102 256.978 163.902 241.711 163.902 223.578C163.902 200.911 170.102 182.245 182.502 167.578C194.902 152.911 210.702 145.578 229.902 145.578ZM256.902 220.578C256.902 186.845 245.835 169.978 223.702 169.978C213.568 169.978 205.568 173.778 199.702 181.378C193.968 188.845 191.102 200.111 191.102 215.178C191.102 230.111 194.168 242.445 200.302 252.178C206.568 261.778 214.768 266.578 224.902 266.578C235.168 266.578 243.035 262.511 248.502 254.378C254.102 246.111 256.902 234.845 256.902 220.578ZM431.928 147.178L429.328 233.578L431.528 281.178L407.928 286.178L348.328 189.778V233.578L351.128 285.578H326.128L328.528 236.978L326.128 148.178L350.128 146.978L409.528 244.778L407.528 150.178L431.928 147.178ZM484.019 285.578L486.419 236.978L484.019 147.578H559.019L556.819 168.978H511.819L510.619 204.378H550.619L548.419 225.578H509.819L509.619 233.578L511.019 264.378H559.419L557.219 285.578H484.019ZM645.056 287.778C630.256 287.778 617.79 281.578 607.656 269.178C597.523 256.778 592.456 241.578 592.456 223.578C592.456 201.578 598.523 183.045 610.656 167.978C622.923 152.911 637.923 145.378 655.656 145.378C662.59 145.378 668.99 146.111 674.856 147.578C680.856 148.911 685.123 150.311 687.656 151.778L691.256 153.978L677.656 181.778C674.59 179.111 670.256 176.645 664.656 174.378C659.056 171.978 653.99 170.778 649.456 170.778C640.256 170.778 632.856 174.578 627.256 182.178C621.79 189.778 619.056 200.645 619.056 214.778C619.056 228.778 621.923 240.311 627.656 249.378C633.39 258.311 641.19 262.778 651.056 262.778C657.456 262.778 663.256 260.778 668.456 256.778C673.656 252.778 677.323 247.445 679.456 240.778L696.056 250.378C691.656 262.111 684.923 271.311 675.856 277.978C666.79 284.511 656.523 287.778 645.056 287.778ZM716.613 170.578L718.813 147.578H813.813L811.613 170.578L776.813 167.578L776.013 233.578L778.413 285.578H750.413L752.813 236.978L752.013 167.778L716.613 170.578Z" fill="#FA9428"/>
<path d="M852.89 381.077C602.887 326.363 429.888 450.578 256.89 434.578L222.39 422.078C354.39 428.578 639.388 318.077 824.389 353.895C835.972 356.138 848.73 357.559 858.89 360.577C1033.89 412.576 1098.89 349.077 1098.89 293.077H1114.89C1109.89 344.077 1096.38 434.367 852.89 381.077Z" fill="#FBFBFB"/>
<path d="M306.89 15.5776L301.39 39.5776C7.39127 17.5776 1.08025 258.139 67.8903 332.578C83.4463 349.911 171.89 456.578 435.89 390.578L451.89 410.578C316.74 449.717 59.2982 477.637 6.06825 270.492C-4.26775 230.271 -1.69075 186.753 16.0413 149.202C74.2743 25.8796 219.332 10.7616 306.89 15.5776Z" fill="#FBFBFB"/>
<path d="M373.399 72.2374L386.112 22.2105C386.416 21.0142 385.691 19.7881 384.489 19.4827L332.287 6.21784C331.086 5.91247 329.863 6.64393 329.559 7.84022L329.421 8.38399C329.117 9.58029 327.895 10.3117 326.694 10.0064L320.168 8.34827C318.967 8.0429 317.744 8.77435 317.44 9.97065L316.473 13.777C316.169 14.9733 314.947 15.7048 313.745 15.3994L306.676 13.6031C305.475 13.2978 304.253 14.0292 303.949 15.2255L297.869 39.1514C297.565 40.3477 298.29 41.5739 299.491 41.8792L306.56 43.6755C307.762 43.9809 308.487 45.207 308.183 46.4033L307.492 49.1221C307.188 50.3184 307.912 51.5446 309.114 51.8499L315.639 53.508C316.841 53.8134 317.566 55.0395 317.262 56.2358L316.847 57.8671C316.543 59.0634 317.268 60.2896 318.47 60.5949L370.672 73.8598C371.873 74.1651 373.095 73.4337 373.399 72.2374Z" fill="#FBFBFB"/>
<path d="M362.578 55.5945L368.519 32.2123C368.823 31.016 368.099 29.7899 366.897 29.4845L358.74 27.4119C357.539 27.1065 356.316 27.838 356.012 29.0343L355.322 31.7531C355.018 32.9494 353.796 33.6809 352.594 33.3755L340.631 30.3356C339.429 30.0303 338.207 30.7617 337.903 31.958L335.83 40.1146C335.526 41.3109 336.251 42.537 337.453 42.8424L349.416 45.8822C350.617 46.1876 351.342 47.4137 351.038 48.61L350.071 52.4164C349.767 53.6127 350.492 54.8388 351.693 55.1442L359.85 57.2168C361.052 57.5222 362.274 56.7908 362.578 55.5945Z" fill="#141821"/>
<path d="M325.057 46.0603L330.999 22.6781C331.303 21.4818 330.578 20.2557 329.377 19.9503L326.114 19.1213C324.912 18.8159 323.69 19.5474 323.386 20.7437L317.445 44.1258C317.141 45.3221 317.865 46.5482 319.067 46.8536L322.33 47.6827C323.531 47.988 324.753 47.2566 325.057 46.0603Z" fill="#141821"/>
<path d="M314.623 34.7257L316.696 26.5691C317 25.3728 316.275 24.1467 315.074 23.8413L311.811 23.0123C310.609 22.7069 309.387 23.4384 309.083 24.6347L307.011 32.7912C306.707 33.9875 307.431 35.2136 308.633 35.519L311.896 36.3481C313.097 36.6534 314.319 35.922 314.623 34.7257Z" fill="#141821"/>
<path d="M1129.89 220.578H1083.89C1082.79 220.578 1081.89 221.473 1081.89 222.578V270.578C1081.89 271.683 1082.79 272.578 1083.89 272.578H1084.39C1085.49 272.578 1086.39 273.473 1086.39 274.578V280.578C1086.39 281.683 1087.29 282.578 1088.39 282.578H1091.89C1092.99 282.578 1093.89 283.473 1093.89 284.578V291.078C1093.89 292.183 1094.79 293.078 1095.89 293.078H1117.89C1118.99 293.078 1119.89 292.183 1119.89 291.078V284.578C1119.89 283.473 1120.79 282.578 1121.89 282.578H1124.39C1125.49 282.578 1126.39 281.683 1126.39 280.578V274.578C1126.39 273.473 1127.29 272.578 1128.39 272.578H1129.89C1130.99 272.578 1131.89 271.683 1131.89 270.578V222.578C1131.89 221.473 1130.99 220.578 1129.89 220.578Z" fill="#FBFBFB"/>
<path d="M1117.89 233.578H1096.39C1095.29 233.578 1094.39 234.473 1094.39 235.578V243.078C1094.39 244.183 1095.29 245.078 1096.39 245.078H1098.89C1099.99 245.078 1100.89 245.973 1100.89 247.078V258.078C1100.89 259.183 1101.79 260.078 1102.89 260.078H1110.39C1111.49 260.078 1112.39 259.183 1112.39 258.078V247.078C1112.39 245.973 1113.29 245.078 1114.39 245.078H1117.89C1118.99 245.078 1119.89 244.183 1119.89 243.078V235.578C1119.89 234.473 1118.99 233.578 1117.89 233.578Z" fill="#141821"/>
<path d="M1117.89 268.078H1096.39C1095.29 268.078 1094.39 268.973 1094.39 270.078V273.078C1094.39 274.183 1095.29 275.078 1096.39 275.078H1117.89C1118.99 275.078 1119.89 274.183 1119.89 273.078V270.078C1119.89 268.973 1118.99 268.078 1117.89 268.078Z" fill="#141821"/>
<path d="M1110.39 279.578H1102.89C1101.79 279.578 1100.89 280.473 1100.89 281.578V284.578C1100.89 285.683 1101.79 286.578 1102.89 286.578H1110.39C1111.49 286.578 1112.39 285.683 1112.39 284.578V281.578C1112.39 280.473 1111.49 279.578 1110.39 279.578Z" fill="#141821"/>
<path d="M1106.89 140.578L1033.89 198.078V271.578H1071.89V210.578H1144.89V271.578H1177.89L1179.89 198.078L1106.89 140.578Z" fill="#FA9428"/>
<path d="M1020.89 196.578L1002.89 179.078L1106.89 95.0779L1149.89 129.809V114.078H1179.89V154.04L1210.89 179.078L1191.39 196.578L1106.89 128.578L1020.89 196.578Z" fill="#FA9428"/>
</svg>
